<svg width="285" height="241" viewBox="0 0 285 241" fill="none" xmlns="http://www.w3.org/2000/svg">
<path d="M213.255 207.857C235.324 185.719 246.358 158.999 246.358 127.698C246.358 96.4392 235.324 69.7622 213.255 47.667C191.23 25.529 164.585 14.46 133.321 14.46C102.057 14.46 75.3697 25.529 53.2584 47.667C31.2326 69.7622 20.2197 96.4392 20.2197 127.698C20.2197 158.999 31.2326 185.719 53.2584 207.857C75.3697 229.952 102.057 241 133.321 241C164.585 241 191.23 229.952 213.255 207.857Z" fill="#E8F1FF"/>
<mask id="mask0_246_9403" style="mask-type:luminance" maskUnits="userSpaceOnUse" x="20" y="14" width="227" height="227">
<path d="M213.255 207.857C235.324 185.719 246.358 158.999 246.358 127.698C246.358 96.4392 235.324 69.7622 213.255 47.667C191.23 25.529 164.585 14.46 133.321 14.46C102.057 14.46 75.3697 25.529 53.2584 47.667C31.2326 69.7622 20.2197 96.4392 20.2197 127.698C20.2197 158.999 31.2326 185.719 53.2584 207.857C75.3697 229.952 102.057 241 133.321 241C164.585 241 191.23 229.952 213.255 207.857Z" fill="white"/>
</mask>
<g mask="url(#mask0_246_9403)">
</g>
<path fill-rule="evenodd" clip-rule="evenodd" d="M229.741 16.2538L226.87 8.06989L223.748 9.14131L226.619 17.348L229.741 16.2538ZM219.122 124.194L216.251 116.011L213.129 117.082L216 125.289L219.122 124.194ZM156.799 71.4665L159.921 70.3723L162.769 78.5789L159.647 79.6732L156.799 71.4665ZM25.0432 51.5881L21.9213 52.6823L24.7697 60.889L27.8916 59.7948L25.0432 51.5881ZM63.2346 49.9467L66.3564 48.8525L69.2048 57.0592L66.083 58.1534L63.2346 49.9467ZM72.4862 111.77L69.615 103.587L66.4931 104.658L69.3643 112.865L72.4862 111.77ZM57.7656 15.4787C57.3403 15.7674 57.0592 15.9878 56.9225 16.1398C56.725 16.3526 56.5959 16.6185 56.5351 16.9377C56.4895 17.2568 56.5351 17.5456 56.6718 17.8039C56.763 17.9863 56.9681 18.2826 57.2871 18.693C57.758 19.2553 58.0771 19.7264 58.2442 20.1063C58.548 20.775 58.6391 21.4817 58.5176 22.2264C58.4113 22.9863 58.115 23.6398 57.6289 24.1869C57.3555 24.506 56.9225 24.8632 56.33 25.2583C55.9047 25.5471 55.6236 25.7674 55.4869 25.9194C55.2894 26.1322 55.1603 26.3981 55.0995 26.7173C55.0539 27.0516 55.0919 27.348 55.2135 27.6063C55.3198 27.8039 55.5325 28.0927 55.8515 28.4726C56.3072 29.0501 56.6187 29.5212 56.7858 29.886C57.0896 30.5547 57.1884 31.2614 57.082 32.006C56.9757 32.7659 56.6794 33.4194 56.1933 33.9665C55.9199 34.2857 55.4793 34.6428 54.8717 35.0379C54.4463 35.3267 54.1652 35.5471 54.0285 35.699C53.831 35.9118 53.7095 36.1854 53.6639 36.5197L51.408 36.1778C51.5143 35.4179 51.8106 34.7644 52.2967 34.2173C52.5853 33.8981 53.0259 33.541 53.6184 33.1459C54.0437 32.8571 54.3248 32.6367 54.4615 32.4848C54.659 32.272 54.7805 32.006 54.8261 31.6869C54.8868 31.3677 54.8489 31.079 54.7121 30.8206C54.621 30.6079 54.4159 30.3115 54.0969 29.9316C53.6259 29.3693 53.3069 28.8981 53.1398 28.5182C52.836 27.8495 52.7372 27.1428 52.8436 26.3981C52.9499 25.6383 53.2462 24.9848 53.7323 24.4377C54.0057 24.1185 54.4463 23.7614 55.0539 23.3662C55.4793 23.0775 55.7604 22.8571 55.8971 22.7051C56.0946 22.4924 56.2161 22.2264 56.2617 21.9073C56.3072 21.5881 56.2693 21.2918 56.1477 21.0182C56.0566 20.8358 55.8515 20.5471 55.5325 20.1519C55.0615 19.5896 54.7425 19.1185 54.5754 18.7386C54.2716 18.0699 54.1728 17.3556 54.2792 16.5957C54.4007 15.851 54.7045 15.2051 55.1907 14.658C55.4641 14.3389 55.8971 13.9817 56.4895 13.5866C56.9149 13.2978 57.2035 13.0775 57.3555 12.9255C57.5529 12.7127 57.6745 12.4392 57.7201 12.1048L59.976 12.4468C59.8697 13.2067 59.5734 13.8602 59.0873 14.4073C58.8138 14.7264 58.3733 15.0836 57.7656 15.4787ZM132.645 42.6975C132.401 43.3662 132.257 43.9133 132.212 44.3389C132.151 45.0683 132.303 45.7674 132.667 46.4361C133.032 47.12 133.533 47.6367 134.171 47.9863C134.521 48.1838 135.052 48.3738 135.766 48.5562C136.268 48.6778 136.609 48.7841 136.792 48.8753C137.05 49.0121 137.255 49.2249 137.407 49.5136C137.559 49.8024 137.627 50.0911 137.612 50.3799C137.582 50.5774 137.483 50.927 137.316 51.4285C137.073 52.0972 136.929 52.6443 136.883 53.0698C136.822 53.7993 136.974 54.4984 137.339 55.1671C137.703 55.851 138.205 56.3677 138.843 56.7173C139.192 56.9148 139.724 57.1048 140.438 57.2872C140.924 57.4087 141.266 57.5151 141.463 57.6063C141.721 57.7431 141.927 57.9559 142.078 58.2446C142.23 58.5334 142.291 58.8221 142.261 59.1109C142.23 59.3084 142.132 59.658 141.964 60.1595C141.721 60.813 141.577 61.3601 141.532 61.8008C141.471 62.5303 141.623 63.2294 141.987 63.8981L143.993 62.8267C143.841 62.5379 143.78 62.2492 143.81 61.9604C143.841 61.7629 143.939 61.4133 144.106 60.9118C144.35 60.2431 144.494 59.696 144.539 59.2705C144.6 58.541 144.448 57.8419 144.084 57.1732C143.719 56.4893 143.218 55.9726 142.58 55.623C142.23 55.4255 141.699 55.2355 140.985 55.0531C140.483 54.9315 140.142 54.8252 139.959 54.734C139.701 54.5972 139.496 54.3844 139.344 54.0957C139.192 53.8069 139.131 53.5182 139.162 53.2294C139.177 53.0167 139.276 52.6747 139.458 52.2036C139.701 51.4893 139.838 50.9422 139.868 50.5623C139.929 49.8328 139.777 49.1261 139.412 48.4422C139.048 47.7735 138.554 47.2644 137.931 46.9148C137.536 46.7021 136.997 46.5121 136.313 46.3449C135.827 46.2233 135.485 46.1094 135.288 46.003C135.03 45.8662 134.824 45.6534 134.673 45.3647C134.521 45.0759 134.46 44.7872 134.49 44.4984C134.521 44.3009 134.619 43.9589 134.786 43.4726C135.03 42.8039 135.174 42.2568 135.219 41.8313C135.28 41.1018 135.128 40.3951 134.764 39.7112L132.758 40.8054C132.91 41.0942 132.971 41.3829 132.941 41.6717C132.91 41.8692 132.812 42.2112 132.645 42.6975ZM11.4164 121.049L8.29453 122.143L5.42334 113.936L8.54519 112.865L11.4164 121.049ZM85.999 134.818L83.6747 132.469L77.5222 138.602L79.8692 140.95L85.999 134.818ZM210.6 59.2477L213.721 58.1534L216.57 66.3601L213.448 67.4543L210.6 59.2477Z" fill="#002F6B"/>
<path fill-rule="evenodd" clip-rule="evenodd" d="M169.377 8.0699L167.258 5.53951L173.958 0L176.054 2.53039L169.377 8.0699ZM101.631 1.68693L99.2838 4.01215L105.436 10.1672L107.761 7.81914L101.631 1.68693ZM240.428 20.9954C239.714 21.1018 239.068 21.4134 238.491 21.9301C237.929 22.4468 237.549 23.0547 237.352 23.7538C237.245 24.1641 237.192 24.7264 237.192 25.4407C237.177 25.9574 237.147 26.3222 237.101 26.5349C237.025 26.8085 236.866 27.0516 236.622 27.2644C236.379 27.4772 236.114 27.6064 235.825 27.652C235.643 27.6823 235.286 27.6672 234.754 27.6064C234.01 27.5456 233.447 27.538 233.068 27.5836C232.339 27.7051 231.693 28.0167 231.131 28.5182C230.553 29.0349 230.174 29.6428 229.991 30.3419C229.87 30.7675 229.809 31.3298 229.809 32.0288C229.809 32.5456 229.786 32.9103 229.741 33.1231C229.665 33.3966 229.505 33.6398 229.262 33.8526C229.019 34.0653 228.753 34.1945 228.465 34.2401C228.267 34.2705 227.91 34.2553 227.394 34.1945C226.649 34.1337 226.08 34.1261 225.685 34.1717C224.955 34.2933 224.31 34.6048 223.748 35.1064L225.274 36.8161C225.518 36.5881 225.783 36.4589 226.072 36.4285C226.285 36.3981 226.642 36.4133 227.143 36.4741C227.887 36.5501 228.449 36.5577 228.829 36.4969C229.558 36.3753 230.204 36.0638 230.766 35.5623C231.343 35.0456 231.723 34.4377 231.906 33.7386C232.027 33.313 232.088 32.7507 232.088 32.0516C232.088 31.5349 232.111 31.1778 232.156 30.9802C232.232 30.6915 232.392 30.4407 232.635 30.2279C232.878 30 233.144 29.8708 233.432 29.8404C233.645 29.81 234.002 29.8252 234.503 29.886C235.248 29.962 235.817 29.9696 236.212 29.9088C236.942 29.8024 237.587 29.4909 238.149 28.9741C238.711 28.4726 239.091 27.8647 239.289 27.1504C239.395 26.7705 239.456 26.2082 239.471 25.4635C239.471 24.9468 239.494 24.5896 239.539 24.3921C239.615 24.1033 239.775 23.8526 240.018 23.6398C240.261 23.4118 240.527 23.2827 240.815 23.2523C241.028 23.2219 241.385 23.2371 241.886 23.2979C242.616 23.3586 243.185 23.3586 243.595 23.2979C244.325 23.1915 244.97 22.8875 245.532 22.386L244.006 20.6763C243.762 20.889 243.497 21.0182 243.208 21.0638C242.995 21.079 242.638 21.0638 242.137 21.0182C241.438 20.9422 240.869 20.9346 240.428 20.9954ZM35.1377 32.4164L41.8144 26.8769L39.718 24.3465L33.0185 29.886L35.1377 32.4164ZM207.409 39.3465L205.313 36.8161L198.613 42.3556L200.733 44.886L207.409 39.3465ZM245.532 48.6246L238.856 54.1641L236.736 51.6337L243.436 46.0942L245.532 48.6246ZM245.532 135L238.856 140.539L236.736 138.009L243.436 132.469L245.532 135ZM237.944 80.9042C238.126 81.2689 238.294 81.8084 238.445 82.5227C238.567 83.0243 238.673 83.3738 238.764 83.5714C238.886 83.8297 239.084 84.0425 239.357 84.2097C239.646 84.3616 239.934 84.43 240.223 84.4148C240.436 84.3996 240.785 84.316 241.271 84.1641C241.94 83.9361 242.494 83.8145 242.935 83.7993C243.649 83.7537 244.34 83.9209 245.008 84.3008C245.677 84.6808 246.178 85.1975 246.512 85.851C246.694 86.2157 246.862 86.7552 247.013 87.4695C247.12 87.9559 247.219 88.3054 247.31 88.5182C247.446 88.7765 247.652 88.9893 247.925 89.1565L246.786 91.117C246.132 90.737 245.639 90.2203 245.304 89.5668C245.122 89.2173 244.947 88.6777 244.78 87.9483C244.674 87.4467 244.575 87.1048 244.484 86.9224C244.363 86.6489 244.157 86.4361 243.869 86.2841C243.595 86.117 243.314 86.0486 243.026 86.079C242.813 86.0942 242.464 86.1777 241.977 86.3297C241.279 86.5425 240.724 86.6641 240.314 86.6945C239.585 86.7249 238.886 86.5501 238.218 86.1701C237.564 85.7902 237.071 85.2735 236.736 84.62C236.554 84.2553 236.387 83.7157 236.235 83.0015C236.114 82.4999 236.007 82.158 235.916 81.9756C235.795 81.7021 235.589 81.4893 235.301 81.3373C235.027 81.1702 234.746 81.1018 234.458 81.1322C234.26 81.1474 233.911 81.2309 233.409 81.3829C232.711 81.5957 232.156 81.7173 231.746 81.7477C231.017 81.7781 230.326 81.6033 229.672 81.2233C229.004 80.8434 228.503 80.3267 228.168 79.6732C227.986 79.3084 227.819 78.7689 227.667 78.0546C227.546 77.5531 227.439 77.2112 227.348 77.0288C227.227 76.7553 227.029 76.5425 226.756 76.3905L227.895 74.4072C228.548 74.7872 229.042 75.3039 229.376 75.9574C229.558 76.3069 229.733 76.8464 229.9 77.5759C230.007 78.0774 230.105 78.427 230.196 78.6246C230.318 78.8829 230.523 79.0957 230.812 79.2629C231.085 79.4148 231.366 79.4832 231.655 79.468C231.868 79.4528 232.217 79.3692 232.703 79.2173C233.387 78.9893 233.941 78.8677 234.367 78.8525C235.081 78.8069 235.772 78.9741 236.44 79.354C237.109 79.734 237.61 80.2507 237.944 80.9042ZM202.123 89.9999L208.275 96.1549L210.599 93.8069L204.47 87.6747L202.123 89.9999ZM39.718 104.795L41.8144 107.325L35.1377 112.865L33.0185 110.334L39.718 104.795ZM167.258 135L160.581 140.539L158.462 138.009L165.162 132.469L167.258 135ZM190.045 66.4285L187.949 63.8981L181.249 69.4376L183.369 71.968L190.045 66.4285ZM43.9336 71.968L41.8144 69.4376L48.5138 63.8981L50.6103 66.4285L43.9336 71.968ZM201.712 129.255L199.616 126.725L192.917 132.264L195.036 134.795L201.712 129.255ZM115.941 97.4315L118.288 95.1063L124.418 101.239L122.094 103.587L115.941 97.4315ZM38.1684 127.865C37.4848 128.123 36.9759 128.366 36.6417 128.594C36.0492 129.004 35.6087 129.567 35.32 130.281C35.0314 130.995 34.9554 131.71 35.0921 132.424C35.1681 132.819 35.3656 133.351 35.6846 134.02C35.9125 134.476 36.0492 134.81 36.0948 135.023C36.1556 135.311 36.1252 135.6 36.0036 135.889C35.8821 136.193 35.6998 136.421 35.4567 136.573C35.2744 136.694 34.9478 136.846 34.4769 137.029C33.7933 137.287 33.2844 137.53 32.9501 137.758C32.3425 138.169 31.8943 138.731 31.6057 139.445C31.3171 140.159 31.2411 140.874 31.3778 141.588C31.4538 142.014 31.6513 142.545 31.9703 143.184C32.1982 143.625 32.3349 143.959 32.3805 144.187C32.4412 144.46 32.4108 144.749 32.2893 145.053C32.1678 145.357 31.9855 145.593 31.7424 145.76C31.5601 145.881 31.2335 146.026 30.7626 146.193C30.0941 146.436 29.5852 146.679 29.2358 146.922C28.6282 147.348 28.18 147.91 27.8914 148.609L30.0106 149.476C30.1321 149.187 30.3144 148.959 30.5575 148.792C30.7246 148.67 31.0512 148.518 31.5373 148.336C32.221 148.093 32.7299 147.849 33.0641 147.606C33.6717 147.196 34.1123 146.634 34.3857 145.919C34.6744 145.205 34.7503 144.491 34.6136 143.776C34.5377 143.366 34.3402 142.834 34.0211 142.181C33.7933 141.71 33.6641 141.375 33.6338 141.178C33.573 140.889 33.6034 140.6 33.7249 140.311C33.8464 140.007 34.0287 139.772 34.2718 139.605C34.4541 139.483 34.7807 139.339 35.2517 139.172C35.9201 138.928 36.429 138.685 36.7784 138.442C37.3861 138.017 37.8266 137.454 38.1001 136.755C38.3887 136.041 38.4647 135.327 38.3279 134.612C38.252 134.202 38.0545 133.67 37.7355 133.017C37.5076 132.546 37.3785 132.211 37.3481 132.014C37.2873 131.725 37.3177 131.428 37.4392 131.125C37.5608 130.821 37.7355 130.593 37.9633 130.441C38.1456 130.319 38.4798 130.175 38.966 130.008C39.6344 129.764 40.1433 129.521 40.4927 129.278C41.1004 128.852 41.5409 128.283 41.8144 127.568L39.718 126.725C39.5964 127.029 39.4141 127.257 39.1711 127.409C38.9888 127.53 38.6546 127.682 38.1684 127.865ZM33.9072 89.5668C33.7249 89.2173 33.5502 88.6777 33.3831 87.9483C33.2768 87.4467 33.178 87.1048 33.0869 86.9224C32.9653 86.6489 32.7603 86.4361 32.4716 86.2841C32.1982 86.117 31.9171 86.0486 31.6285 86.079C31.4158 86.0942 31.0664 86.1777 30.5803 86.3297C29.8815 86.5425 29.327 86.6641 28.9168 86.6945C28.1876 86.7249 27.4888 86.5501 26.8204 86.1701C26.1671 85.7902 25.6734 85.2735 25.3392 84.62C25.1569 84.2553 24.9898 83.7157 24.8379 83.0015C24.7164 82.4999 24.61 82.158 24.5189 81.9756C24.3973 81.7021 24.1923 81.4893 23.9036 81.3373C23.6302 81.1702 23.3491 81.1018 23.0605 81.1322C22.863 81.1474 22.5136 81.2309 22.0123 81.3829C21.3135 81.5957 20.759 81.7173 20.3488 81.7477C19.6196 81.7781 18.9284 81.6033 18.2752 81.2233C17.6067 80.8434 17.1054 80.3267 16.7712 79.6732C16.5889 79.3084 16.4218 78.7689 16.2699 78.0546C16.1484 77.5531 16.042 77.2112 15.9509 77.0288C15.8293 76.7553 15.6318 76.5425 15.3584 76.3905L16.4978 74.4072C17.151 74.7872 17.6447 75.3039 17.9789 75.9574C18.1612 76.3069 18.3359 76.8464 18.503 77.5759C18.6094 78.0774 18.7081 78.427 18.7993 78.6246C18.9208 78.8829 19.1259 79.0957 19.4145 79.2629C19.688 79.4148 19.969 79.4832 20.2577 79.468C20.4703 79.4528 20.8197 79.3692 21.3059 79.2173C21.9895 78.9893 22.544 78.8677 22.9693 78.8525C23.6833 78.8069 24.3745 78.9741 25.043 79.354C25.7114 79.734 26.2127 80.2507 26.5469 80.9042C26.7292 81.2689 26.8963 81.8084 27.0483 82.5227C27.1698 83.0243 27.2761 83.3738 27.3673 83.5714C27.4888 83.8297 27.6863 84.0425 27.9597 84.2097C28.2484 84.3616 28.537 84.43 28.8257 84.4148C29.0383 84.3996 29.3877 84.316 29.8739 84.1641C30.5423 83.9361 31.0968 83.8145 31.5373 83.7993C32.2513 83.7537 32.9426 83.9209 33.611 84.3008C34.2794 84.6808 34.7807 85.1975 35.1149 85.851C35.2972 86.2157 35.4643 86.7552 35.6163 87.4695C35.7226 87.9559 35.8213 88.3054 35.9125 88.5182C36.0492 88.7765 36.2543 88.9893 36.5277 89.1565L35.3884 91.117C34.7351 90.737 34.2414 90.2203 33.9072 89.5668ZM184.873 88.9969C185.207 88.7689 185.716 88.5258 186.399 88.2674C186.886 88.085 187.22 87.9331 187.402 87.8115C187.645 87.6595 187.827 87.4315 187.949 87.1276L190.045 87.9711C189.772 88.6853 189.331 89.2552 188.724 89.6808C188.374 89.9239 187.865 90.1671 187.197 90.4103C186.711 90.5774 186.377 90.7218 186.194 90.8434C185.966 90.9954 185.792 91.2233 185.67 91.5273C185.549 91.8312 185.518 92.1276 185.579 92.4163C185.609 92.6139 185.739 92.9482 185.966 93.4194C186.285 94.0729 186.483 94.6048 186.559 95.0151C186.696 95.7294 186.62 96.4437 186.331 97.158C186.058 97.8571 185.617 98.4194 185.009 98.8449C184.66 99.0881 184.151 99.3312 183.483 99.5744C183.012 99.7416 182.685 99.8859 182.503 100.008C182.26 100.175 182.077 100.41 181.956 100.714C181.834 101.003 181.804 101.292 181.865 101.58C181.895 101.778 182.024 102.112 182.252 102.584C182.571 103.237 182.769 103.769 182.845 104.179C182.981 104.894 182.905 105.608 182.617 106.322C182.343 107.036 181.903 107.599 181.295 108.009C180.961 108.252 180.452 108.495 179.768 108.739C179.282 108.921 178.956 109.073 178.788 109.194C178.545 109.362 178.363 109.59 178.242 109.878L176.122 109.012C176.411 108.313 176.859 107.751 177.467 107.325C177.816 107.082 178.325 106.839 178.994 106.596C179.465 106.428 179.791 106.284 179.973 106.163C180.216 105.995 180.399 105.76 180.52 105.456C180.642 105.152 180.672 104.863 180.611 104.59C180.566 104.362 180.429 104.027 180.201 103.587C179.882 102.948 179.685 102.416 179.609 101.991C179.472 101.277 179.548 100.562 179.837 99.8479C180.125 99.1337 180.573 98.5714 181.181 98.161C181.515 97.9331 182.024 97.6899 182.708 97.4315C183.179 97.2492 183.505 97.0972 183.688 96.9756C183.931 96.8236 184.113 96.5957 184.235 96.2917C184.356 96.003 184.387 95.7142 184.326 95.4255C184.28 95.2127 184.143 94.8783 183.916 94.4224C183.597 93.7537 183.399 93.2218 183.323 92.8267C183.186 92.1124 183.262 91.3981 183.551 90.6838C183.84 89.9695 184.28 89.4072 184.873 88.9969Z" fill="#0068EF"/>
<path fill-rule="evenodd" clip-rule="evenodd" d="M27.8916 8.20668L25.0204 0L21.8985 1.09422L24.7697 9.27811L27.8916 8.20668ZM192.917 149.156L190.046 140.95L186.924 142.044L189.795 150.228L192.917 149.156ZM147.661 112.865L150.533 121.071L147.411 122.143L144.539 113.959L147.661 112.865ZM118.425 135.889L121.296 144.073L124.418 143.001L121.547 134.795L118.425 135.889ZM173.616 36.5197L175.849 38.9361L169.491 44.8404L167.258 42.424L173.616 36.5197ZM170.403 88.9969L167.691 87.1276L162.769 94.2856L165.504 96.1549L170.403 88.9969ZM204.607 16.1626L207.728 15.0684L210.6 23.2751L207.478 24.3465L204.607 16.1626ZM141.668 5.79027L138.546 6.88449L141.418 15.0684L144.539 13.997L141.668 5.79027ZM86.9333 36.8161L89.8045 45.0228L86.6827 46.0942L83.8115 37.9103L86.9333 36.8161ZM2.87119 37.9787L5.99304 36.9073L3.12185 28.7006L0 29.7948L2.87119 37.9787ZM231.678 106.983L234.39 108.853L229.49 116.011L226.756 114.141L231.678 106.983ZM87.4346 76.7325L88.9842 79.6732L96.6635 75.6382L95.1367 72.7203L87.4346 76.7325ZM264.309 154.24L262.076 151.824L268.434 145.919L270.667 148.336L264.309 154.24Z" fill="#C3D8FF"/>
<path d="M277.366 59.0197L280.078 60.889L285 53.731L282.265 51.8617L277.366 59.0197Z" fill="#FFFFF3"/>
<path fill-rule="evenodd" clip-rule="evenodd" d="M192.568 30.848C192.568 26.0922 190.963 22.0434 187.754 18.7016C184.319 15.2312 180.211 13.496 175.429 13.496H96.4284C91.6784 13.496 87.6986 15.2312 84.4892 18.7016C81.0551 22.0434 79.338 26.0922 79.338 30.848V56.7314H74.8608C74.6361 56.7314 74.4596 56.7956 74.3312 56.9242C74.2029 57.0206 74.1387 57.1973 74.1387 57.4544V68.8778C74.1387 69.1027 74.2029 69.2794 74.3312 69.408C74.4596 69.5365 74.6361 69.6008 74.8608 69.6008H79.338V74.951H74.8608C74.6361 74.951 74.4596 75.0152 74.3312 75.1438C74.2029 75.2402 74.1387 75.4169 74.1387 75.674V87.0974C74.1387 87.3223 74.2029 87.499 74.3312 87.6276C74.4596 87.7561 74.6361 87.8204 74.8608 87.8204H79.338V223.166C79.338 227.922 81.0551 232.019 84.4892 235.457C87.6986 238.67 91.6784 240.277 96.4284 240.277H175.429C180.211 240.277 184.319 238.67 187.754 235.457C190.963 232.019 192.568 227.922 192.568 223.166V30.848ZM186.694 19.762C189.647 22.8468 191.123 26.5421 191.123 30.848V223.166C191.123 227.568 189.647 231.312 186.694 234.397C183.613 237.385 179.858 238.879 175.429 238.879H96.4284C92.1598 238.879 88.485 237.385 85.4039 234.397C82.2907 231.312 80.7341 227.568 80.7341 223.166V30.848C80.7341 26.5421 82.2907 22.8468 85.4039 19.762C88.485 16.6772 92.1598 15.1348 96.4284 15.1348H175.429C179.858 15.1348 183.613 16.6772 186.694 19.762ZM79.338 58.1774H75.5829V68.1548H79.338V58.1774ZM75.5829 76.3488H79.338V86.3744H75.5829V76.3488ZM116.407 232.806V231.36H157.28V232.806H116.407ZM152.466 21.208H149.24V22.6058H152.466V21.208ZM119.825 22.6058V21.208H144.233V22.6058H119.825Z" fill="#004499"/>
<path fill-rule="evenodd" clip-rule="evenodd" d="M186.694 19.762C189.647 22.8468 191.124 26.5421 191.124 30.848V223.166C191.124 227.568 189.647 231.312 186.694 234.397C183.613 237.385 179.858 238.879 175.429 238.879H96.4284C92.1599 238.879 88.485 237.385 85.404 234.397C82.2908 231.312 80.7342 227.568 80.7342 223.166V30.848C80.7342 26.5421 82.2908 22.8468 85.404 19.762C88.485 16.6772 92.1599 15.1348 96.4284 15.1348H175.429C179.858 15.1348 183.613 16.6772 186.694 19.762ZM79.3381 58.1774H75.583V68.1548H79.3381V58.1774ZM79.3381 76.3488H75.583V86.3744H79.3381V76.3488ZM184.191 23.3288C186.566 25.6102 187.754 28.4058 187.754 31.7156V217.286C187.754 219.76 186.919 221.897 185.25 223.696C183.357 225.367 181.158 226.203 178.655 226.203H93.5881C91.0847 226.203 88.9504 225.367 87.1852 223.696C85.3879 221.897 84.4893 219.76 84.4893 217.286V31.7156C84.4893 28.4058 85.7409 25.6102 88.2443 23.3288C90.4909 20.8224 93.3474 19.5692 96.8136 19.5692H110.341C111.529 19.5692 112.251 20.1154 112.508 21.208V21.3526L113.182 23.7144H113.374C114.337 26.4457 116.183 27.8114 118.911 27.8114H153.332C156.06 27.8114 157.97 26.4457 159.061 23.7144L159.735 21.3526V21.208C159.992 20.1154 160.714 19.5692 161.901 19.5692H175.429C178.896 19.5692 181.816 20.8224 184.191 23.3288ZM119.825 21.208V22.6058H144.233V21.208H119.825ZM149.24 21.208H152.466V22.6058H149.24V21.208ZM116.407 231.36V232.806H157.28V231.36H116.407Z" fill="white"/>
<path d="M187.754 31.7156C187.754 28.4058 186.566 25.6102 184.191 23.3288C181.816 20.8224 178.896 19.5692 175.429 19.5692H161.901C160.714 19.5692 159.992 20.1154 159.735 21.208V21.3526L159.061 23.7144C157.97 26.4457 156.06 27.8114 153.332 27.8114H118.911C116.183 27.8114 114.337 26.4457 113.374 23.7144H113.182L112.508 21.3526V21.208C112.251 20.1154 111.529 19.5692 110.341 19.5692H96.8136C93.3474 19.5692 90.4909 20.8224 88.2443 23.3288C85.7409 25.6102 84.4893 28.4058 84.4893 31.7156V217.286C84.4893 219.76 85.3879 221.897 87.1852 223.696C88.9504 225.367 91.0847 226.203 93.5881 226.203H178.655C181.158 226.203 183.357 225.367 185.25 223.696C186.919 221.897 187.754 219.76 187.754 217.286V31.7156Z" fill="#0068EF"/>
<path fill-rule="evenodd" clip-rule="evenodd" d="M165.681 123.341C165.685 119.262 162.439 116.015 158.374 116.03C154.339 116.045 151.103 119.287 151.099 123.322C151.094 127.36 154.325 130.61 158.355 130.623C162.443 130.635 165.677 127.421 165.681 123.341ZM150.233 111.979C151.494 110.876 152.829 109.989 154.388 109.551C159.105 108.226 163.459 108.97 167.337 112.029C173.566 116.944 174.074 125.062 170.938 130.468C167.862 135.771 162 138.586 156.023 137.504C155.115 137.34 154.243 136.969 153.372 136.598L153.372 136.598C153.004 136.441 152.636 136.284 152.265 136.143C152.113 136.085 151.971 135.999 151.797 135.892L151.797 135.892C151.707 135.837 151.609 135.777 151.496 135.713V136.465L151.496 138.87C151.496 141.271 151.496 143.671 151.495 146.072C151.494 146.877 151.482 146.888 150.664 146.89C150.117 146.89 149.57 146.889 149.023 146.887H149.023C147.737 146.883 146.45 146.88 145.164 146.901C144.569 146.911 144.393 146.701 144.394 146.121C144.406 134.272 144.406 122.423 144.395 110.574C144.395 110.031 144.557 109.841 145.124 109.818C147.165 109.735 148.896 110.349 150.233 111.979ZM130.999 123.313L130.999 120.161C130.999 117.005 130.999 113.849 131 110.693C131 109.842 131.008 109.834 131.858 109.833C132.408 109.833 132.958 109.834 133.509 109.836C134.792 109.839 136.076 109.842 137.359 109.823C137.937 109.815 138.15 110.004 138.15 110.594C138.137 119.093 138.138 127.592 138.149 136.09C138.15 136.649 137.946 136.839 137.397 136.832C136.167 136.817 134.938 136.819 133.708 136.821H133.708H133.706C133.081 136.823 132.457 136.824 131.832 136.823C131.029 136.821 131 136.792 131 135.997C130.999 132.825 130.999 129.654 130.999 126.482V126.482L130.999 123.313ZM114.809 122.903C114.557 123.472 114.303 124.047 114.045 124.632C113.988 124.511 113.936 124.399 113.887 124.293C113.783 124.072 113.693 123.878 113.607 123.682C113.182 122.713 112.756 121.744 112.329 120.775C110.971 117.686 109.613 114.597 108.272 111.5C107.781 110.367 106.989 109.81 105.751 109.827C104.667 109.843 103.583 109.84 102.5 109.836C101.942 109.835 101.384 109.833 100.826 109.834C99.988 109.835 99.8621 110.023 100.193 110.777C101.19 113.045 102.187 115.313 103.184 117.581C105.791 123.507 108.397 129.433 110.987 135.366C111.583 136.731 112.626 137.268 114.015 137.274C115.4 137.28 116.483 136.78 117.08 135.417C119.494 129.905 121.915 124.397 124.336 118.889C125.525 116.183 126.715 113.477 127.903 110.771C128.222 110.045 128.087 109.836 127.312 109.834C126.624 109.833 125.936 109.834 125.247 109.835C123.889 109.837 122.53 109.84 121.173 109.822C120.678 109.815 120.449 110.019 120.268 110.438C118.98 113.41 117.679 116.378 116.378 119.344C115.861 120.522 115.341 121.699 114.809 122.903Z" fill="#FFF100"/>
<path fill-rule="evenodd" clip-rule="evenodd" d="M142.087 102.048H139.257V88.688H142.087V102.048ZM146.767 90.3857C146.767 91.2016 146.108 91.8638 145.298 91.8638C144.486 91.8638 143.828 91.2016 143.828 90.3857C143.828 89.569 144.486 88.907 145.298 88.907C146.108 88.907 146.767 89.569 146.767 90.3857ZM169.351 91.5786H168.955V90.8819H169.382C169.679 90.8819 169.892 90.9818 169.892 91.2225C169.892 91.5315 169.669 91.5786 169.351 91.5786ZM169.471 90.5781H168.623V92.883H168.955V91.8825H169.299L169.929 92.883H170.309L169.669 91.8773C169.955 91.8302 170.226 91.6521 170.226 91.2225C170.226 90.7929 169.976 90.5781 169.471 90.5781ZM170.944 91.7303C170.944 92.6315 170.21 93.3856 169.33 93.3856C168.451 93.3856 167.717 92.6315 167.717 91.7303C167.717 90.8296 168.451 90.0755 169.33 90.0755C170.21 90.0755 170.944 90.8296 170.944 91.7303ZM171.277 91.7303C171.277 90.6464 170.407 89.7716 169.33 89.7716C168.253 89.7716 167.383 90.6464 167.383 91.7303C167.383 92.8147 168.253 93.6895 169.33 93.6895C170.407 93.6895 171.277 92.8147 171.277 91.7303ZM163.98 94.9197C164.372 95.3344 164.446 95.8582 164.498 96.2553H160.693L160.699 96.2265C160.786 95.8373 160.88 95.4147 161.245 95.0089C161.514 94.7207 161.979 94.3954 162.64 94.3954C163.122 94.3954 163.64 94.5762 163.98 94.9197ZM166.106 101.15C166.588 100.698 166.91 100.228 167.231 99.7403L165.158 98.6757C164.82 99.3432 164.301 100.338 162.8 100.338C161.317 100.338 160.655 99.1637 160.675 97.9884H167.338C167.303 96.924 167.231 95.082 166.018 93.7637C164.82 92.4645 163.211 92.4114 162.657 92.4114C158.976 92.4114 157.869 95.3344 157.869 97.6091C157.869 100.698 159.816 102.487 162.586 102.487C164.087 102.487 165.303 101.909 166.106 101.15ZM151.273 93.5873L151.327 93.5286C151.566 93.2723 151.751 93.0729 152.199 92.8575C152.627 92.6807 153.232 92.5209 153.893 92.5209C154.447 92.5209 155.069 92.6268 155.552 92.893C156.532 93.4103 156.78 94.2476 156.78 95.6903V102.048H154.054V96.8122C154.054 95.974 154.035 95.6727 153.929 95.4226C153.713 94.9246 153.232 94.71 152.698 94.71C151.252 94.71 151.252 95.8675 151.252 97.0268V102.048H148.508V92.7693H151.273V93.5873ZM146.549 102.048H143.828V92.7399H146.549V102.048ZM135.218 96.2553C135.164 95.8582 135.093 95.3344 134.698 94.9197C134.359 94.5762 133.839 94.3954 133.356 94.3954C132.695 94.3954 132.232 94.7207 131.965 95.0089C131.599 95.4144 131.505 95.8367 131.418 96.2256L131.412 96.2553H135.218ZM137.95 99.7403C137.63 100.228 137.309 100.698 136.827 101.15C136.024 101.909 134.805 102.487 133.303 102.487C130.536 102.487 128.59 100.698 128.59 97.6091C128.59 95.3344 129.697 92.4114 133.374 92.4114C133.929 92.4114 135.54 92.4645 136.738 93.7637C137.95 95.082 138.022 96.924 138.059 97.9884H131.393C131.375 99.1637 132.036 100.338 133.517 100.338C135.021 100.338 135.54 99.3432 135.881 98.6757L137.95 99.7403ZM127.171 99.3323C127.19 99.3023 127.234 99.2933 127.242 99.3186C127.47 100.118 127.868 100.779 128.4 101.291C128.273 101.409 128.133 101.526 127.974 101.639C127.256 102.144 126.343 102.487 125.287 102.487C123.495 102.487 120.645 101.405 120.645 97.5652C120.645 94.8255 122.222 92.5209 125.34 92.5209C126.15 92.5209 127.406 92.6996 128.481 93.7063C127.89 94.2923 127.504 95.0302 127.28 95.8006C127.274 95.825 127.229 95.8115 127.213 95.7811C127.068 95.4982 126.881 95.2251 126.504 94.9525C126.235 94.7723 125.894 94.6284 125.465 94.6284C123.978 94.6284 123.475 96.3403 123.475 97.4747C123.475 98.7194 124.086 100.287 125.555 100.287C125.697 100.287 126.38 100.287 126.953 99.6379C127.047 99.5302 127.116 99.431 127.171 99.3323ZM116.726 102.048H119.447V92.7399H116.726V102.048ZM118.086 91.8638C118.898 91.8638 119.556 91.2016 119.556 90.3857C119.556 89.569 118.898 88.907 118.086 88.907C117.275 88.907 116.618 89.569 116.618 90.3857C116.618 91.2016 117.275 91.8638 118.086 91.8638ZM112.853 93.699C113.455 93.1817 114.111 92.7719 115.529 92.6304V95.0547L114.624 95.1974C113.315 95.4306 112.923 95.627 112.923 96.8039V102.048H110.196V92.719H112.853V93.699ZM103.081 95.2116C103.475 94.6723 103.994 94.456 104.496 94.456C104.621 94.456 104.746 94.4752 104.872 94.5099C106 94.7992 106.34 96.1109 106.34 97.3494C106.34 98.8239 105.749 100.28 104.407 100.28C103.959 100.28 103.493 100.082 103.171 99.7405C102.814 99.3455 102.509 98.6079 102.509 97.4217C102.509 96.542 102.687 95.7322 103.081 95.2116ZM102.58 93.3242C102.491 93.4141 102.401 93.5215 102.313 93.6294V92.7488H99.8594V105.349H102.633V101.485C102.647 101.493 102.661 101.502 102.675 101.511C103.389 101.948 103.925 102.276 104.943 102.276C108.148 102.276 108.99 99.2902 108.99 97.3681C108.99 94.2407 107.217 92.4991 104.926 92.4991C103.887 92.4991 103.046 92.8736 102.58 93.3242Z" fill="white"/>
</svg>
