<svg width="24" height="24" viewBox="0 0 24 24" fill="none" xmlns="http://www.w3.org/2000/svg">
<path fill-rule="evenodd" clip-rule="evenodd" d="M22.1506 0.500122C22.4606 0.504016 22.7673 0.570838 23.0518 0.697263C23.1649 0.747538 23.2554 0.837999 23.3057 0.951135C23.4321 1.23563 23.4989 1.54231 23.5035 1.83241L23.492 2.24989C23.4154 3.63362 22.6891 4.8773 21.3503 6.33099L21.029 6.67204L20.3487 7.36133L18.265 9.40312L18.6931 10.8131C19.1428 10.6559 19.6608 10.7097 20.1048 10.9993L20.2323 11.0906L21.6286 12.4876C21.9064 12.7929 22.0461 13.1991 22.0149 13.6107C21.9876 13.9708 21.8315 14.3072 21.604 14.5363L21.5023 14.6277L20.233 15.8961L21.5677 20.3004C21.6922 20.7152 21.6047 21.1613 21.3379 21.4993L21.2423 21.6077L20.6991 22.1509C20.4475 22.4124 20.0847 22.5357 19.7259 22.4819C19.4118 22.4348 19.1348 22.2571 18.9654 22.0054L18.8996 21.8931L14.259 13.3651L13.6338 13.99L12.371 15.2388C11.5503 16.1016 10.6575 16.8904 9.70145 17.598L10.0486 22.1003C10.0536 22.2829 9.99907 22.4611 9.88668 22.617L9.81232 22.7077L9.27284 23.2472C9.07712 23.4435 8.79958 23.5348 8.52556 23.493C8.29068 23.4572 8.08249 23.3272 7.94479 23.1318L7.88202 23.0287L6.14825 19.5785C5.76376 19.644 5.3644 19.5724 5.02347 19.3705L4.88114 19.276L4.79734 19.1975C4.47541 18.8176 4.34537 18.3197 4.42291 17.8541L0.967355 16.1174C0.721637 15.9891 0.551761 15.7514 0.509961 15.4774C0.474132 15.2425 0.536077 15.005 0.677792 14.8191L0.755213 14.7306L1.30968 14.1767C1.44391 14.0529 1.61405 13.9768 1.80873 13.9592L1.92839 13.9558L6.40703 14.3105C6.99982 13.5155 7.64872 12.7648 8.3476 12.066L8.77288 11.653L10.66 9.75512L2.12306 5.11033C1.83972 4.96699 1.63252 4.71131 1.54908 4.40921L1.52104 4.27709C1.47394 3.96307 1.56251 3.64612 1.76058 3.40322L1.85209 3.30388L2.39863 2.75724C2.70776 2.454 3.14334 2.32376 3.56422 2.40187L3.70377 2.43567L8.106 3.76912L9.3403 2.53939C9.60016 2.21871 9.98067 2.01928 10.3922 1.98806C10.7524 1.96074 11.1084 2.06432 11.4077 2.28763L11.5323 2.39063L12.9536 3.81744C13.2946 4.2563 13.367 4.82137 13.1916 5.31119L14.611 5.74012L16.7676 3.52683L17.3666 2.93671L17.8177 2.51439C19.272 1.19033 20.38 0.574417 21.7245 0.510875L22.1506 0.500122Z" fill="#0068EF"/>
<path fill-rule="evenodd" clip-rule="evenodd" d="M8.75015 18.2617L9.04311 22.0622L8.69111 22.4142L7.09133 19.2299C7.18723 19.1853 7.28426 19.1375 7.38016 19.0875C7.6923 18.9154 7.99942 18.7356 8.3013 18.5483L8.75015 18.2617ZM17.4591 10.1922L20.6104 20.5892L20.6228 20.6564C20.6278 20.7241 20.611 20.7921 20.5746 20.85L20.5319 20.9041L19.9853 21.4507L19.9501 21.4784L19.9127 21.4923L19.8743 21.493L19.838 21.4814L19.8074 21.4594L19.7951 21.4449L14.9971 12.6292L16.4167 11.2159L17.4591 10.1922ZM1.94111 14.9582L5.73872 15.2618C5.54106 15.5606 5.35101 15.8649 5.16885 16.1741L4.90157 16.6418L4.7711 16.9092L1.58911 15.3102L1.94111 14.9582ZM3.34735 3.38048L3.41511 3.39311L13.8261 6.54716L12.5905 7.8163L11.3951 9.01616L2.58783 4.22502L2.54765 4.19772C2.52589 4.17775 2.51393 4.15442 2.51008 4.12879C2.50624 4.10315 2.51083 4.07734 2.52262 4.05499L2.54555 4.02452L3.10242 3.46777L3.15488 3.42672C3.21148 3.39172 3.27929 3.37522 3.34735 3.38048Z" fill="#E8F2FF"/>
<path fill-rule="evenodd" clip-rule="evenodd" d="M22.1413 1.5011L22.2766 1.51045L22.4052 1.53205L22.4559 1.54596L22.4833 1.65691L22.4972 1.76042L22.5028 1.86489L22.4932 2.18085C22.4273 3.23239 21.8745 4.23383 20.8285 5.41647L20.6128 5.65548L20.202 6.08869L19.6451 6.65064L15.5187 10.6973L12.2623 13.9425L11.6586 14.5372L11.273 14.9313C9.97109 16.2258 8.5049 17.3251 6.90718 18.2064L6.68212 18.3174L6.44782 18.4206L6.09203 18.5605L5.97894 18.5882C5.86708 18.607 5.75942 18.5993 5.66064 18.5675L5.56499 18.5277L5.52591 18.503L5.49813 18.4646C5.38939 18.2841 5.37242 18.0599 5.45768 17.8625C5.55956 17.5892 5.66552 17.3461 5.78498 17.1096C6.66731 15.5186 7.7778 14.0474 9.07655 12.7514L9.47179 12.3679L13.4769 8.3416L13.9857 7.82423L17.3574 4.35254L17.5924 4.11575L17.8202 3.89027L18.2555 3.4727L18.5001 3.24749C19.7029 2.15878 20.6165 1.62692 21.6218 1.52325L21.8242 1.50819L22.1413 1.5011ZM19.4811 11.7812L19.5719 11.839L20.9051 13.1777L20.9471 13.2343C20.9978 13.3167 21.026 13.4253 21.0177 13.5351C21.0093 13.6448 20.9651 13.748 20.893 13.8292L20.8339 13.8857L19.9039 14.8121L18.9828 11.7718C19.1393 11.6995 19.3236 11.7008 19.4811 11.7812ZM10.7773 3.06404L10.8421 3.11399L12.2051 4.47775L12.2469 4.54749C12.2982 4.65644 12.3061 4.79343 12.2689 4.92393L12.2325 5.02005L9.1909 4.09814L10.0822 3.20775L10.1558 3.12967C10.2549 3.03775 10.358 2.99354 10.4678 2.98521C10.5775 2.97688 10.6861 3.00503 10.7773 3.06404ZM21.6389 2.3274C21.1743 1.86341 20.4249 1.86341 19.9603 2.3274C19.8537 2.43388 19.853 2.60721 19.9588 2.71455C20.0646 2.82188 20.2368 2.82256 20.3434 2.71608C20.5454 2.51431 20.8465 2.47396 21.0882 2.59502L21.1757 2.64798L21.2525 2.71308L21.2861 2.75646C21.4076 2.87712 21.476 3.04178 21.476 3.2136C21.476 3.38543 21.4076 3.55008 21.2861 3.67074C21.1791 3.77691 21.1779 3.95024 21.2834 4.05788C21.3889 4.16553 21.5611 4.16672 21.668 4.06055C21.8932 3.837 22.0199 3.53194 22.0199 3.2136C22.0199 2.98621 21.9552 2.7656 21.8362 2.57663L21.7584 2.46725L21.6699 2.36864L21.6389 2.3274Z" fill="white"/>
</svg>
