<svg width="128" height="128" viewBox="0 0 128 128" fill="none" xmlns="http://www.w3.org/2000/svg">
<path d="M0 63.5039C0 28.4316 28.4299 0 63.5 0C98.5701 0 127 28.4316 127 63.5039V63.9962C127 29.7396 98.7904 1.96911 63.9922 1.96911C29.7378 1.96911 1.96899 29.7396 1.96899 63.9962L0 63.5039ZM63.5 127.008C28.4299 127.008 0 98.5761 0 63.5039C0 28.4316 28.4299 0 63.5 0L63.9922 1.96911C29.7378 1.96911 1.96899 29.7396 1.96899 63.9962C1.96899 98.7965 29.7378 127.008 63.9922 127.008H63.5Z" fill="#0068EF"/>
</svg>
